HIERARCHY
ROOT pelvis
{
  OFFSET 0 100 0
  CHANNELS 6 Xposition Yposition Zposition Zrotation Xrotation Yrotation
  JOINT pelvis_right_femur
  {
    OFFSET -10.78128 -3.44521 -0.5502486
    CHANNELS 3 Zrotation Xrotation Yrotation
    JOINT right_femur_tibia
    {
      OFFSET -0.8047443 -44.0398 -0.1307829
      CHANNELS 3 Zrotation Xrotation Yrotation
      JOINT right_tibia_foot
      {
        OFFSET 3.006224 -47.83518 -5
        CHANNELS 3 Zrotation Xrotation Yrotation
        End Site
        {
          OFFSET 0 -5 15
        }
      }
    }
  }
  JOINT pelvis_left_femur
  {
    OFFSET 10.78128 -3.44521 -0.5502486
    CHANNELS 3 Zrotation Xrotation Yrotation
    JOINT left_femur_tibia
    {
      OFFSET 0.8047443 -44.0398 -0.1307829
      CHANNELS 3 Zrotation Xrotation Yrotation
      JOINT left_tibia_foot
      {
        OFFSET -4.370144 -48.10324 -4.275266
        CHANNELS 3 Zrotation Xrotation Yrotation
        End Site
        {
          OFFSET 0 -5 15
        }
      }
    }
  }
  JOINT pelvis_spine1
  {
    OFFSET 0 6.468898 -3.129235
    CHANNELS 3 Zrotation Xrotation Yrotation
    JOINT spine1
    {
      OFFSET 0 23.15396 4.99043
      CHANNELS 3 Zrotation Xrotation Yrotation
      JOINT spine2
      {
        OFFSET 0 20.79997 -5.064912
        CHANNELS 3 Zrotation Xrotation Yrotation
        JOINT neck
        {
          OFFSET 0 14.38658 9.616178
          CHANNELS 3 Zrotation Xrotation Yrotation
          End Site
          {
            OFFSET 0 20 0
          }
        }
      }
      JOINT right_manubrium
      {
        OFFSET -5.722621 16.35077 3.967754
        CHANNELS 3 Zrotation Xrotation Yrotation
        JOINT right_clavicle
        {
          OFFSET -13.16364 1.694482 -4.693211
          CHANNELS 3 Zrotation Xrotation Yrotation
          JOINT right_humerus
          {
            OFFSET -28.5034 -0.3100689 -2.792744
            CHANNELS 3 Zrotation Xrotation Yrotation
            JOINT right_radius
            {
              OFFSET -25.15693 0.02248979 -1.271978
              CHANNELS 3 Zrotation Xrotation Yrotation
              End Site
              {
                OFFSET -15 0 0
              }
            }
          }
        }
      }
      JOINT left_manubrium
      {
        OFFSET 5.722621 16.35077 3.967754
        CHANNELS 3 Zrotation Xrotation Yrotation
        JOINT left_clavicle
        {
          OFFSET 13.16364 1.694482 -4.693211
          CHANNELS 3 Zrotation Xrotation Yrotation
          JOINT left_humerus
          {
            OFFSET 29.39168 -1.063119 -2.237045
            CHANNELS 3 Zrotation Xrotation Yrotation
            JOINT left_radius
            {
              OFFSET 24.59957 -0.9528479 0.9047498
              CHANNELS 3 Zrotation Xrotation Yrotation
              End Site
              {
                OFFSET 15 -0 -0
              }
            }
          }
        }
      }
    }
  }
}
MOTION
Frames: 13
Frame Time: 0.0416666666667
0 103.5113 0 0.8696027 -0.09440256 -0.2207516 3.91114 -16.65365 10.72236 -0 38.9776 -0 -4.934003 -18.69307 -3.290455 -7.177768 9.455461 -23.15343 -0 6.204262 -0 13.85219 -12.56896 29.09734 -3.965098 -4.046742 5.069005 2.902446 10.10363 -7.793654 1.330605 21.56989 6.660395 2.761507 -25.0612 9.781659 6.945418 -19.97356 11.96422 85.02227 38.36037 -17.71064 -0 0 16.45862 -6.132438 8.336637 4.058018 5.667314 -18.95746 -1.139965 -91.93848 21.39254 20.24464 0 0 -14.19304 14.95988 14.1801 -3.491178
0.3278754 103.8766 1.683505 0.8115704 0.1367006 -0.3994363 4.094037 -17.86629 10.46507 -0 37.91922 -0 -4.884678 -17.8521 -3.073364 -7.158013 9.433595 -22.78961 -0 5.98033 -0 13.9422 -13.03665 28.8553 -3.910112 -3.890761 5.12037 2.893475 10.18113 -7.793419 1.356513 21.42962 6.682459 2.818669 -25.2005 9.805299 6.896647 -20.00311 11.97721 85.11482 38.31985 -17.82823 -0 0 16.38259 -6.30447 8.487301 4.084252 5.850681 -19.2294 -1.189322 -91.70178 21.0097 20.05281 0 0 -14.78249 15.42164 13.98009 -3.909704
0.6699055 104.0475 3.610166 0.6574329 0.7312661 -0.4477781 4.596633 -21.29629 9.609805 -0 34.53465 -0 -4.824557 -15.39071 -2.519578 -7.104348 9.697656 -21.81672 -0 5.511262 -0 13.64904 -14.77496 27.99702 -3.752541 -3.417498 5.187138 2.861561 10.25549 -7.770761 1.44387 21.15199 6.733141 2.985478 -25.49228 9.831554 6.654958 -19.9856 11.93237 85.47996 37.91531 -18.3313 -0 0 16.00275 -6.739565 8.740617 4.158738 6.339955 -19.96354 -1.365925 -91.22763 20.71413 19.59714 0 0 -16.67732 15.80304 13.76222 -4.058408
1.015574 104.0282 5.792738 0.5469813 1.239232 -0.3844312 4.973849 -24.16399 8.736915 -0 31.12984 -0 -4.825101 -13.26867 -2.073254 -7.075993 10.13855 -20.93271 -0 5.335725 -0 13.14189 -16.37955 27.11836 -3.6297 -3.043419 5.202989 2.842228 10.23735 -7.758019 1.512515 20.97948 6.764631 3.118255 -25.65892 9.815637 6.366065 -19.87434 11.835 85.89691 37.45304 -18.90145 -0 0 15.47811 -7.125982 8.873151 4.239419 6.757984 -20.60441 -1.517874 -90.80353 20.72591 19.08469 0 0 -18.49126 15.78611 13.67679 -3.846712
1.359517 103.8041 8.319405 0.4375325 1.777776 -0.206979 5.273796 -27.11697 7.556712 -0 27.01655 -0 -4.941767 -10.8594 -1.575628 -7.052454 10.77841 -19.85748 -0 5.405406 -0 12.35898 -18.09097 25.93706 -3.490445 -2.687934 5.15925 2.823849 10.17965 -7.764295 1.55222 20.85227 6.808508 3.263412 -25.75506 9.740165 5.974538 -19.66563 11.69699 86.47251 36.85972 -19.65439 -0 0 14.6624 -7.688354 8.977367 4.413402 7.200464 -21.35312 -1.710277 -90.2439 20.82264 18.34516 0 0 -20.63286 15.58531 13.6317 -3.468565
1.69435 103.3795 11.26096 0.3100147 2.257568 0.07909305 5.437539 -29.81765 6.089659 -0 22.64183 -0 -5.248819 -8.308162 -1.066159 -7.007217 11.59888 -18.65928 -0 5.831005 -0 11.17893 -19.72794 24.40607 -3.307187 -2.373601 5.011729 2.798065 10.07536 -7.787967 1.548532 20.8118 6.867066 3.410513 -25.7483 9.590902 5.486515 -19.35554 11.52947 87.18261 36.09133 -20.53423 -0 0 13.57496 -8.439226 9.020564 4.7077 7.593445 -22.14025 -1.964592 -89.61462 21.10629 17.45626 0 0 -22.88927 15.05908 13.70442 -2.773558
2.010847 102.7756 14.6972 0.136901 2.633719 0.4622205 5.461714 -32.12964 4.333982 -0 18.19597 -0 -5.788868 -5.680733 -0.5616807 -6.907633 12.59052 -17.32149 -0 6.764705 -0 9.520783 -21.13956 22.44057 -3.039515 -2.10706 4.732127 2.759433 9.927132 -7.83137 1.496751 20.87091 6.932155 3.542741 -25.62076 9.359935 4.887489 -18.93462 11.33867 88.02634 35.08884 -21.50662 -0 0 12.21587 -9.396342 8.996794 5.133692 7.894838 -22.93858 -2.302472 -88.91399 21.56097 16.42281 0 0 -25.14794 14.19637 13.89764 -1.752481
2.297772 102.0449 18.69736 -0.1092636 2.849838 0.9179442 5.399311 -33.80674 2.426367 -0 14.08077 -0 -6.560213 -3.215439 -0.1233229 -6.714805 13.69204 -15.88556 -0 8.4291 -0 7.378564 -22.07156 20.04826 -2.647741 -1.906761 4.310776 2.708072 9.738028 -7.896747 1.400239 21.03357 6.98233 3.626645 -25.36556 9.054619 4.190799 -18.40748 11.13656 88.96121 33.84028 -22.48982 -0 0 10.66413 -10.49011 8.901556 5.65728 8.036379 -23.66611 -2.724853 -88.18681 22.16351 15.31988 0 0 -27.16545 13.01101 14.19255 -0.420975
2.542202 101.2826 23.30912 -0.4500905 2.850854 1.404715 5.373025 -34.57725 0.6095174 -0 10.78761 -0 -7.517957 -1.213678 0.1614137 -6.386757 14.77657 -14.4108 -0 11.13235 -0 4.861241 -22.21396 17.33667 -2.097161 -1.793794 3.765845 2.647512 9.528199 -7.986446 1.268267 21.28586 6.988832 3.623498 -24.99208 8.692886 3.433664 -17.79781 10.94474 89.92679 32.38423 -23.38401 -0 0 9.053276 -11.60574 8.754941 6.214604 7.944227 -24.22435 -3.219561 -87.49935 22.83897 14.27163 0 0 -28.6435 11.58703 14.53495 1.133754
2.730789 100.6362 28.53539 -0.8881339 2.585261 1.860748 5.554561 -34.16192 -0.7750415 -0 8.876728 -0 -8.571331 0.004729494 0.1837912 -5.889963 15.61706 -12.9907 -0 15.25839 -0 2.228106 -21.26646 14.56527 -1.376375 -1.782977 3.160631 2.583113 9.343651 -8.096637 1.118751 21.59356 6.920108 3.502161 -24.53436 8.304119 2.689849 -17.16084 10.79713 90.84138 30.8358 -24.08 -0 0 7.582407 -12.58285 8.607764 6.711013 7.552404 -24.50848 -3.755029 -86.96306 23.48022 13.48271 0 0 -29.25035 10.0722 14.85149 2.766734
2.852022 100.3009 34.30754 -1.387958 2.015764 2.206839 6.074918 -32.34669 -1.402452 -0 8.795347 -0 -9.612145 0.2348359 -0.1424903 -5.222857 15.87198 -11.73693 -0 21.20579 -0 -0.1473128 -19.07451 12.12245 -0.5229021 -1.863789 2.614561 2.517412 9.261494 -8.208078 0.9788362 21.90713 6.751925 3.262484 -24.05118 7.921035 2.065361 -16.5857 10.73666 91.61413 29.39121 -24.48641 -0 0 6.480198 -13.25661 8.536847 7.040237 6.837151 -24.45018 -4.280741 -86.72964 23.96998 13.218 0 0 -28.71987 8.660448 15.0728 4.296529
2.898896 100.4854 40.46371 -1.858733 1.137142 2.360896 6.898213 -29.07879 -1.14469 -0 10.583 -0 -10.56908 -0.463543 -0.8077898 -4.44745 15.11098 -10.74417 -0 29.20232 -0 -1.899942 -15.78825 10.41732 0.3495466 -1.977427 2.292696 2.444371 9.375712 -8.276216 0.8813559 22.1801 6.481201 2.960261 -23.61203 7.56506 1.674817 -16.17949 10.8029 92.15861 28.30991 -24.55205 -0 0 5.927921 -13.52308 8.61263 7.121564 5.860869 -24.07192 -4.733758 -86.95253 24.21203 13.71564 0 0 -26.98789 7.55272 15.1615 5.539603
2.869694 101.3388 46.75243 -2.158699 -0.003725017 2.266405 7.771218 -24.55349 -0.2071094 -0 13.57242 -0 -11.45624 -1.712198 -1.648159 -3.699747 12.91335 -10.03831 -0 38.96379 -0 -2.816186 -11.94133 9.729051 1.047307 -2.00991 2.353334 2.345982 9.750876 -8.230312 0.8533409 22.40003 6.136023 2.710203 -23.26093 7.230647 1.589937 -16.02742 11.00979 92.406 27.85544 -24.26101 -0 0 5.960437 -13.41262 8.841629 6.95516 4.800364 -23.5195 -5.055225 -87.70061 24.14738 15.02467 0 0 -24.30056 6.916549 15.13018 6.327705
